<svg  viewBox="0 0 24 24" fill="none" xmlns="http://www.w3.org/2000/svg">
    <path d="M16.4891 9.99553L16.1116 18.8222M10.8884 18.8222L10.5109 9.99553M21.3851 6.84734C21.7582 6.89834 22.1291 6.95228 22.5 7.01014M21.3851 6.84734L20.22 20.463C20.1724 21.0173 19.8939 21.5351 19.44 21.9128C18.9862 22.2904 18.3904 22.5002 17.772 22.5H9.228C8.60956 22.5002 8.01384 22.2904 7.55998 21.9128C7.10611 21.5351 6.82755 21.0173 6.78 20.463L5.61491 6.84734M21.3851 6.84734C20.126 6.67622 18.8605 6.54635 17.5909 6.45799M5.61491 6.84734C5.24182 6.89736 4.87091 6.9513 4.5 7.00916M5.61491 6.84734C6.87396 6.67622 8.13953 6.54635 9.40909 6.45799M17.5909 6.45799V5.55963C17.5909 4.40235 16.5982 3.4373 15.3109 3.40101C14.1039 3.36633 12.8961 3.36633 11.6891 3.40101C10.4018 3.4373 9.40909 4.40333 9.40909 5.55963V6.45799M17.5909 6.45799C14.8677 6.26878 12.1323 6.26878 9.40909 6.45799" stroke-width="1.5"  />
</svg>
